<svg width="35" height="36" viewBox="0 0 35 36" fill="none" xmlns="http://www.w3.org/2000/svg">
<path d="M29.6467 9.66474H23.9011C24.6443 8.53822 24.7598 7.34054 24.1313 6.52826C23.8042 6.10451 23.3099 5.83909 22.702 5.76167C21.6861 5.63123 20.4574 6.03929 19.4121 6.84948C18.8258 7.30218 18.3581 7.83301 18.0306 8.38615C17.7014 7.82987 17.2306 7.29695 16.6519 6.85017C14.9098 5.50148 12.8354 5.35989 11.9279 6.52861C11.3011 7.34124 11.4169 8.53891 12.1591 9.66509H6.41384C6.12471 9.66509 5.89069 9.89911 5.89069 10.1882V15.6922C5.89069 15.9813 6.12471 16.2153 6.41384 16.2153H7.62163V29.961C7.62163 30.2498 7.85565 30.4841 8.14478 30.4841H27.9175C28.2063 30.4841 28.4407 30.2498 28.4407 29.961V16.215H29.6467C29.9355 16.215 30.1699 15.9809 30.1699 15.6918V10.1879C30.1699 9.89876 29.9355 9.66474 29.6467 9.66474ZM20.0524 7.67711C20.8721 7.042 21.8388 6.70578 22.5692 6.7996C22.9001 6.8418 23.1467 6.96562 23.303 7.16825C23.7292 7.71931 23.4059 8.76771 22.5625 9.66509H18.6173C18.7847 8.9972 19.3103 8.25013 20.0524 7.67711ZM12.7555 7.1686C13.2755 6.49896 14.7972 6.73717 16.0116 7.67745C16.752 8.24978 17.2783 8.99336 17.4461 9.66474H13.4963C12.6547 8.76736 12.3318 7.71861 12.7555 7.1686ZM6.93699 10.711H17.5078V15.1687H6.93699V10.711ZM8.66793 16.215H17.5078V29.4375H8.66793V16.215ZM27.3944 29.4375H18.5541V16.215H27.3944V29.4375ZM29.1236 15.1687H18.5541V10.711H22.7844C22.7847 10.711 22.7847 10.711 22.7851 10.711H29.1236V15.1687Z" fill="white"/>
</svg>
