<svg width="35" height="35" viewBox="0 0 35 35" fill="none" xmlns="http://www.w3.org/2000/svg">
<path d="M8.74996 10.2084H16.0416C16.4284 10.2084 16.7993 10.362 17.0728 10.6355C17.3463 10.909 17.5 11.2799 17.5 11.6667C17.5 12.0535 17.3463 12.4244 17.0728 12.6979C16.7993 12.9714 16.4284 13.125 16.0416 13.125H8.74996C8.36319 13.125 7.99225 12.9714 7.71876 12.6979C7.44527 12.4244 7.29163 12.0535 7.29163 11.6667C7.29163 11.2799 7.44527 10.909 7.71876 10.6355C7.99225 10.362 8.36319 10.2084 8.74996 10.2084ZM18.9583 21.875H26.25C26.6367 21.875 27.0077 22.0287 27.2812 22.3022C27.5546 22.5757 27.7083 22.9466 27.7083 23.3334C27.7083 23.7201 27.5546 24.0911 27.2812 24.3646C27.0077 24.6381 26.6367 24.7917 26.25 24.7917H18.9583C18.5715 24.7917 18.2006 24.6381 17.9271 24.3646C17.6536 24.0911 17.5 23.7201 17.5 23.3334C17.5 22.9466 17.6536 22.5757 17.9271 22.3022C18.2006 22.0287 18.5715 21.875 18.9583 21.875ZM8.74996 16.0417H26.25C26.6367 16.0417 27.0077 16.1954 27.2812 16.4688C27.5546 16.7423 27.7083 17.1133 27.7083 17.5C27.7083 17.8868 27.5546 18.2577 27.2812 18.5312C27.0077 18.8047 26.6367 18.9584 26.25 18.9584H8.74996C8.36319 18.9584 7.99225 18.8047 7.71876 18.5312C7.44527 18.2577 7.29163 17.8868 7.29163 17.5C7.29163 17.1133 7.44527 16.7423 7.71876 16.4688C7.99225 16.1954 8.36319 16.0417 8.74996 16.0417Z" fill="#333333"/>
</svg>
