<svg width="30" height="31" viewBox="0 0 30 31" fill="none" xmlns="http://www.w3.org/2000/svg">
<g clip-path="url(#clip0_480_8)">
<path d="M15 0.644775V4.91228H12.5V0.644775H15ZM6.25001 3.87603L9.26751 6.89353L7.50001 8.66103L4.48251 5.64478L6.25001 3.87603ZM23.0175 5.64353L20 8.66103L18.2325 6.89478L21.25 3.87603L23.0175 5.64353ZM13.75 8.53228C13.4994 8.53228 13.259 8.63184 13.0818 8.80906C12.9046 8.98628 12.805 9.22665 12.805 9.47728V22.016L7.18251 20.766L7.05751 20.9548L11.3375 26.5248C11.4259 26.6396 11.5396 26.7325 11.6696 26.7964C11.7996 26.8604 11.9426 26.8936 12.0875 26.8935H20.945C21.1435 26.8935 21.3369 26.8311 21.498 26.7152C21.6591 26.5992 21.7796 26.4355 21.8425 26.2473L24.07 19.5598C24.139 19.3536 24.135 19.13 24.0585 18.9264C23.982 18.7229 23.8377 18.5519 23.65 18.4423L19.1188 15.7985C18.9742 15.7143 18.8099 15.6698 18.6425 15.6698H14.6938V9.47728C14.6938 9.22686 14.5944 8.98669 14.4174 8.8095C14.2405 8.63232 14.0004 8.53261 13.75 8.53228ZM10.305 9.47728C10.3222 8.57513 10.6926 7.71574 11.3367 7.08382C11.9808 6.4519 12.8471 6.0979 13.7494 6.0979C14.6517 6.0979 15.518 6.4519 16.1621 7.08382C16.8061 7.71574 17.1766 8.57513 17.1938 9.47728V13.1698H18.6425C19.2525 13.1698 19.8525 13.3323 20.38 13.6385L24.91 16.2835C25.5932 16.6823 26.1184 17.304 26.3974 18.0441C26.6765 18.7843 26.6924 19.598 26.4425 20.3485L24.2138 27.036C23.9852 27.7223 23.5466 28.3193 22.9599 28.7424C22.3733 29.1655 21.6683 29.3933 20.945 29.3935H12.0875C11.5597 29.3935 11.0389 29.2722 10.5653 29.039C10.0918 28.8058 9.67811 28.4669 9.35627 28.0485L3.98376 21.0573L5.15876 19.2923C5.42159 18.8976 5.79776 18.5918 6.23777 18.4151C6.67777 18.2384 7.16098 18.199 7.62376 18.3023L10.305 18.8985V9.47728Z" fill="#444444"/>
</g>
<defs>
<clipPath id="clip0_480_8">
<rect width="30" height="30" fill="white" transform="translate(0 0.0197754)"/>
</clipPath>
</defs>
</svg>
