<svg width="35" height="36" viewBox="0 0 35 36" fill="none" xmlns="http://www.w3.org/2000/svg">
<g clip-path="url(#clip0_403_518)">
<path d="M17.6786 9.46182C13.0304 9.46182 9.24866 13.2449 9.24866 17.8953C9.24866 20.5725 10.5156 23.0716 12.6533 24.6604V30.3568C12.6533 30.6448 12.8867 30.8786 13.1751 30.8786H14.0135C14.2681 32.676 15.8123 34.064 17.6786 34.064C19.5457 34.064 21.0909 32.676 21.3459 30.8786H22.0848C22.3728 30.8786 22.6066 30.6448 22.6066 30.3568V24.7334C24.8038 23.1464 26.1111 20.6097 26.1111 17.8953C26.1111 13.2449 22.3283 9.46182 17.6786 9.46182ZM17.6786 33.0208C16.3891 33.0208 15.311 32.0986 15.0682 30.8789H20.2915C20.048 32.0982 18.9692 33.0208 17.6786 33.0208ZM21.563 29.8349H13.6969V24.9133H21.563V29.8349ZM19.1849 18.3545V23.8696H16.0725V18.3545H19.1849ZM22.0208 23.8696H20.2285V18.3545H21.8757C22.1638 18.3545 22.3975 18.1207 22.3975 17.8327C22.3975 17.5443 22.1638 17.3109 21.8757 17.3109H13.3838C13.0954 17.3109 12.862 17.5443 12.862 17.8327C12.862 18.1207 13.0954 18.3545 13.3838 18.3545H15.0286V23.8696H13.3393C11.4277 22.4799 10.2919 20.2674 10.2919 17.8953C10.2919 13.8207 13.6054 10.5054 17.6783 10.5054C21.7522 10.5054 25.0671 13.8203 25.0671 17.8953C25.0674 20.2636 23.9316 22.4775 22.0208 23.8696Z" fill="white"/>
<path d="M17.6285 7.70856C17.9165 7.70856 18.1503 7.47513 18.1503 7.18675V1.92449C18.1503 1.6361 17.9165 1.40268 17.6285 1.40268C17.3401 1.40268 17.1067 1.6361 17.1067 1.92449V7.18675C17.1067 7.47513 17.3401 7.70856 17.6285 7.70856Z" fill="white"/>
<path d="M6.13661 17.3109H0.874347C0.585961 17.3109 0.352539 17.5443 0.352539 17.8327C0.352539 18.1207 0.585961 18.3545 0.874347 18.3545H6.13661C6.42499 18.3545 6.65842 18.1207 6.65842 17.8327C6.65842 17.5446 6.42499 17.3109 6.13661 17.3109Z" fill="white"/>
<path d="M33.9219 17.3109H28.6621C28.374 17.3109 28.1403 17.5443 28.1403 17.8327C28.1403 18.1207 28.374 18.3545 28.6621 18.3545H33.9219C34.2099 18.3545 34.4437 18.1207 34.4437 17.8327C34.4437 17.5446 34.2099 17.3109 33.9219 17.3109Z" fill="white"/>
<path d="M9.32273 10.3764C9.42153 10.463 9.54398 10.5051 9.66573 10.5051C9.81114 10.5051 9.95586 10.4446 10.0588 10.3263C10.2484 10.1092 10.2258 9.77978 10.0087 9.59019L6.04543 6.13026C5.82871 5.94067 5.49858 5.96328 5.30933 6.18035C5.11974 6.39742 5.14235 6.72686 5.35943 6.91645L9.32273 10.3764Z" fill="white"/>
<path d="M24.6967 10.5051C24.8184 10.5051 24.9405 10.4627 25.0393 10.3764L29.0047 6.91645C29.2218 6.72686 29.244 6.39742 29.0548 6.18C28.8659 5.96293 28.5358 5.93997 28.3187 6.12991L24.3533 9.58984C24.1362 9.77943 24.114 10.1089 24.3032 10.3263C24.4062 10.4449 24.5509 10.5051 24.6967 10.5051Z" fill="white"/>
</g>
<defs>
<clipPath id="clip0_403_518">
<rect width="34.9914" height="34.91" fill="white" transform="translate(0.00427246 0.339935)"/>
</clipPath>
</defs>
</svg>
