<svg width="48" height="49" viewBox="0 0 48 49" fill="none" xmlns="http://www.w3.org/2000/svg">
<path d="M8.01796 31.702C7.85801 31.7832 7.72365 31.9071 7.62976 32.0599C7.53586 32.2128 7.48609 32.3886 7.48596 32.568L7.48596 42.447C7.48591 42.6132 7.52849 42.7767 7.60961 42.9217C7.69074 43.0668 7.80772 43.1887 7.94936 43.2756C8.091 43.3626 8.25258 43.4118 8.41865 43.4185C8.58473 43.4252 8.74975 43.3893 8.89796 43.314L24 35.65L39.102 43.314C39.2502 43.3893 39.4152 43.4252 39.5813 43.4185C39.7473 43.4118 39.9089 43.3626 40.0506 43.2756C40.1922 43.1887 40.3092 43.0668 40.3903 42.9217C40.4714 42.7767 40.514 42.6132 40.514 42.447V32.569C40.514 32.3895 40.4643 32.2134 40.3704 32.0604C40.2765 31.9073 40.1421 31.7833 39.982 31.702L24 23.592L8.01896 31.702H8.01796Z" stroke="#444444" stroke-linecap="round" stroke-linejoin="round"/>
<path d="M8.01796 14.53C7.85801 14.6112 7.72365 14.7351 7.62976 14.888C7.53586 15.0408 7.48609 15.2167 7.48596 15.396L7.48596 25.275C7.48608 25.4412 7.52878 25.6045 7.60998 25.7494C7.69118 25.8944 7.80817 26.0161 7.94978 26.1029C8.0914 26.1898 8.25291 26.2389 8.4189 26.2456C8.5849 26.2522 8.74983 26.2162 8.89796 26.141L24 18.478L39.102 26.141C39.2501 26.2162 39.415 26.2522 39.581 26.2456C39.747 26.2389 39.9085 26.1898 40.0501 26.1029C40.1918 26.0161 40.3087 25.8944 40.3899 25.7494C40.4711 25.6045 40.5138 25.4412 40.514 25.275V15.396C40.514 15.2165 40.4643 15.0404 40.3704 14.8874C40.2765 14.7344 40.1421 14.6103 39.982 14.529L24 6.42005L8.01896 14.53H8.01796Z" stroke="#444444" stroke-linecap="round" stroke-linejoin="round"/>
</svg>
