<svg width="33" height="33" viewBox="0 0 33 33" fill="none" xmlns="http://www.w3.org/2000/svg">
<path d="M16.5 3.09375C13.8485 3.09375 11.2565 3.88001 9.05189 5.35311C6.84725 6.82621 5.12893 8.91998 4.11425 11.3696C3.09956 13.8193 2.83407 16.5149 3.35135 19.1154C3.86864 21.716 5.14546 24.1048 7.02036 25.9797C8.89525 27.8545 11.284 29.1314 13.8846 29.6487C16.4851 30.1659 19.1807 29.9004 21.6304 28.8858C24.08 27.8711 26.1738 26.1528 27.6469 23.9481C29.12 21.7435 29.9063 19.1515 29.9063 16.5C29.9025 12.9456 28.4889 9.53784 25.9755 7.0245C23.4622 4.51115 20.0544 3.0975 16.5 3.09375ZM16.5 24.75C16.1941 24.75 15.895 24.6593 15.6406 24.4893C15.3862 24.3193 15.188 24.0777 15.0709 23.7951C14.9538 23.5124 14.9232 23.2014 14.9829 22.9013C15.0425 22.6013 15.1899 22.3257 15.4062 22.1093C15.6225 21.893 15.8982 21.7457 16.1982 21.686C16.4983 21.6263 16.8093 21.6569 17.092 21.774C17.3746 21.8911 17.6162 22.0893 17.7862 22.3437C17.9562 22.5981 18.0469 22.8972 18.0469 23.2031C18.0469 23.6134 17.8839 24.0068 17.5938 24.2969C17.3037 24.587 16.9103 24.75 16.5 24.75ZM17.5313 18.4697V18.5625C17.5313 18.836 17.4226 19.0983 17.2292 19.2917C17.0358 19.4851 16.7735 19.5938 16.5 19.5938C16.2265 19.5938 15.9642 19.4851 15.7708 19.2917C15.5774 19.0983 15.4688 18.836 15.4688 18.5625V17.5312C15.4688 17.2577 15.5774 16.9954 15.7708 16.802C15.9642 16.6086 16.2265 16.5 16.5 16.5C18.2054 16.5 19.5938 15.3398 19.5938 13.9219C19.5938 12.5039 18.2054 11.3438 16.5 11.3438C14.7946 11.3438 13.4063 12.5039 13.4063 13.9219V14.4375C13.4063 14.711 13.2976 14.9733 13.1042 15.1667C12.9108 15.3601 12.6485 15.4688 12.375 15.4688C12.1015 15.4688 11.8392 15.3601 11.6458 15.1667C11.4524 14.9733 11.3438 14.711 11.3438 14.4375V13.9219C11.3438 11.3631 13.6563 9.28125 16.5 9.28125C19.3437 9.28125 21.6563 11.3631 21.6563 13.9219C21.6563 16.1623 19.8825 18.0379 17.5313 18.4697Z" fill="#444444"/>
</svg>
