<svg width="35" height="36" viewBox="0 0 35 36" fill="none" xmlns="http://www.w3.org/2000/svg">
<path d="M17.09 4.53789C9.48031 4.53789 3.28931 10.7289 3.28931 18.3386C3.28931 25.9483 9.48031 32.139 17.09 32.139C24.6997 32.139 30.8904 25.9479 30.8904 18.3386C30.8904 10.7285 24.6997 4.53789 17.09 4.53789ZM17.09 31.0932C10.0569 31.0932 4.33503 25.3714 4.33503 18.3386C4.33503 11.3054 10.0569 5.58361 17.09 5.58361C24.1232 5.58361 29.8446 11.3054 29.8446 18.3386C29.8446 25.3714 24.1232 31.0932 17.09 31.0932Z" fill="white"/>
<path d="M22.7397 20.5095H11.4414C11.1525 20.5095 10.9186 20.7434 10.9186 21.0324C10.9186 24.4355 13.6869 27.2042 17.0901 27.2042C20.4935 27.2042 23.2626 24.4355 23.2626 21.0324C23.2626 20.7434 23.0287 20.5095 22.7397 20.5095ZM17.0901 26.1585C14.4402 26.1585 12.2536 24.1371 11.9908 21.5552H22.1904C21.9276 24.1371 19.7406 26.1585 17.0901 26.1585Z" fill="white"/>
<path d="M13.8114 14.2171C13.8114 12.9378 12.7705 11.8973 11.4909 11.8973C10.212 11.8973 9.17151 12.9378 9.17151 14.2171C9.17151 15.4967 10.212 16.5375 11.4909 16.5375C12.7702 16.5375 13.8114 15.4967 13.8114 14.2171ZM10.2172 14.2171C10.2172 13.5143 10.7885 12.943 11.4909 12.943C12.194 12.943 12.7656 13.5147 12.7656 14.2171C12.7656 14.9201 12.1936 15.4918 11.4909 15.4918C10.7885 15.4918 10.2172 14.9201 10.2172 14.2171Z" fill="white"/>
<path d="M22.4326 11.8973C21.153 11.8973 20.1122 12.9378 20.1122 14.2171C20.1122 15.4967 21.153 16.5375 22.4326 16.5375C23.7122 16.5375 24.7531 15.4967 24.7531 14.2171C24.7531 12.9378 23.7122 11.8973 22.4326 11.8973ZM22.4326 15.4918C21.7296 15.4918 21.1579 14.9198 21.1579 14.2171C21.1579 13.5143 21.7299 12.943 22.4326 12.943C23.1354 12.943 23.7074 13.5147 23.7074 14.2171C23.7074 14.9201 23.1354 15.4918 22.4326 15.4918Z" fill="white"/>
</svg>
