<svg width="35" height="36" viewBox="0 0 35 36" fill="none" xmlns="http://www.w3.org/2000/svg">
<g clip-path="url(#clip0_403_530)">
<path d="M17.4161 18.6184C12.9321 18.6184 9.28394 22.2666 9.28394 26.7503V27.2578H25.548V26.7503C25.548 22.2666 21.8998 18.6184 17.4161 18.6184ZM10.3164 26.2431C10.5775 22.5545 13.662 19.6331 17.4158 19.6331C21.1696 19.6331 24.2541 22.5541 24.5152 26.2431H10.3164Z" fill="white"/>
<path d="M17.2823 17.7867C19.9039 17.7867 22.0365 15.6538 22.0365 13.0325C22.0365 10.4112 19.9036 8.27902 17.2823 8.27902C14.6614 8.27902 12.5292 10.4116 12.5292 13.0325C12.5295 15.6538 14.6617 17.7867 17.2823 17.7867ZM17.2823 9.29372C19.3441 9.29372 21.0218 10.9711 21.0218 13.0325C21.0218 15.0943 19.3441 16.772 17.2823 16.772C15.2209 16.772 13.5439 15.0943 13.5439 13.0325C13.5442 10.9711 15.2209 9.29372 17.2823 9.29372Z" fill="white"/>
<path d="M6.54348 21.5896C7.46441 21.5896 8.36896 21.8354 9.15953 22.3004L9.67402 21.4258C8.72764 20.8691 7.64498 20.575 6.54348 20.575C3.13827 20.575 0.368164 23.3451 0.368164 26.7506V27.2581H7.92418V26.2434H1.40761C1.66311 23.6344 3.86923 21.5896 6.54348 21.5896Z" fill="white"/>
<path d="M6.44483 19.5895C8.46551 19.5895 10.1094 17.946 10.1094 15.9257C10.1094 13.905 8.46551 12.2611 6.44483 12.2611C4.42485 12.2611 2.78168 13.905 2.78168 15.9257C2.78133 17.946 4.42485 19.5895 6.44483 19.5895ZM6.44483 13.2758C7.90605 13.2758 9.09468 14.4644 9.09468 15.9257C9.09468 17.3865 7.90605 18.5748 6.44483 18.5748C4.98431 18.5748 3.79637 17.3865 3.79637 15.9257C3.79602 14.4644 4.98431 13.2758 6.44483 13.2758Z" fill="white"/>
<path d="M28.3335 20.575C27.232 20.575 26.1493 20.8691 25.2029 21.4258L25.7171 22.3004C26.5077 21.8354 27.4122 21.5896 28.3331 21.5896C31.0077 21.5896 33.2135 23.6347 33.469 26.2431H26.9538V27.2578H34.5084V26.7503C34.5088 23.3451 31.7387 20.575 28.3335 20.575Z" fill="white"/>
<path d="M28.4325 19.5895C30.4532 19.5895 32.0971 17.946 32.0971 15.9257C32.0971 13.905 30.4532 12.2611 28.4325 12.2611C26.4125 12.2611 24.7693 13.905 24.7693 15.9257C24.7693 17.946 26.4125 19.5895 28.4325 19.5895ZM28.4325 13.2758C29.8937 13.2758 31.0824 14.4644 31.0824 15.9257C31.0824 17.3865 29.8937 18.5748 28.4325 18.5748C26.972 18.5748 25.784 17.3865 25.784 15.9257C25.784 14.4644 26.972 13.2758 28.4325 13.2758Z" fill="white"/>
</g>
<defs>
<clipPath id="clip0_403_530">
<rect width="34.9803" height="34.98" fill="white" transform="translate(0.00982666 0.339935)"/>
</clipPath>
</defs>
</svg>
