<svg width="30" height="31" viewBox="0 0 30 31" fill="none" xmlns="http://www.w3.org/2000/svg">
<g clip-path="url(#clip0_403_651)">
<path fill-rule="evenodd" clip-rule="evenodd" d="M15 30.9399C23.2842 30.9399 30 24.2241 30 15.9399C30 7.65574 23.2842 0.939941 15 0.939941C6.7158 0.939941 0 7.65574 0 15.9399C0 24.2241 6.7158 30.9399 15 30.9399ZM7.5 11.1399C7.6218 16.9863 10.545 20.4999 15.6699 20.4999H15.9603V17.1549C17.8437 17.3424 19.2675 18.7197 19.8393 20.4999H22.5C21.7692 17.8389 19.8486 16.368 18.6492 15.8058C19.8486 15.1125 21.5349 13.4259 21.9378 11.1399H19.5204C18.9957 12.9951 17.4408 14.6814 15.9603 14.8407V11.1399H13.5432V17.6232C12.0441 17.2485 10.1514 15.4311 10.0668 11.1399H7.5Z" fill="#333333"/>
</g>
<defs>
<clipPath id="clip0_403_651">
<rect width="30" height="30" fill="white" transform="translate(0 0.939941)"/>
</clipPath>
</defs>
</svg>
